<?xml version="1.0" standalone="no"?>
<!DOCTYPE svg PUBLIC "-//W3C//DTD SVG 20010904//EN"
 "http://www.w3.org/TR/2001/REC-SVG-20010904/DTD/svg10.dtd">
<svg version="1.0" xmlns="http://www.w3.org/2000/svg"
 width="500.000000pt" height="500.000000pt" viewBox="0 0 500.000000 500.000000"
 preserveAspectRatio="xMidYMid meet">

<g transform="translate(0.000000,500.000000) scale(0.100000,-0.100000)"
fill="#000000" stroke="none">
<path d="M2387 4173 c-4 -3 -7 -167 -7 -363 l0 -356 323 -1 c317 -1 334 -2
825 -50 l62 -6 -2 339 -3 339 -115 22 c-128 24 -471 60 -655 68 -297 12 -422
15 -428 8z"/>
<path d="M2120 4163 c-188 -21 -381 -75 -500 -141 -84 -46 -206 -168 -253
-252 -95 -171 -133 -383 -123 -680 9 -281 29 -387 97 -529 57 -120 157 -218
289 -283 161 -79 241 -95 758 -158 204 -24 344 -46 362 -55 16 -9 38 -30 47
-48 17 -29 18 -79 21 -589 l3 -557 47 5 c366 42 538 113 681 279 92 107 158
274 193 490 19 123 16 496 -6 620 -65 361 -195 527 -476 604 -102 28 -204 43
-632 96 -372 45 -404 52 -425 93 -4 9 -10 262 -13 562 -4 475 -7 545 -20 546
-8 0 -31 -1 -50 -3z"/>
<path d="M1334 1303 c4 -186 10 -341 14 -345 8 -8 279 -42 462 -58 232 -20
444 -30 628 -30 l182 0 0 363 0 362 -337 0 c-256 1 -404 6 -610 23 -149 12
-288 22 -309 22 l-37 0 7 -337z"/>
</g>
</svg>
